<?xml version="1.0"?>
<svg xmlns="http://www.w3.org/2000/svg" viewBox="0 0 512 512" width="512px" height="512px"><g><g id="Out_line" data-name="Out line"><path d="M494.29688,275.06543a8.0019,8.0019,0,0,0-9.71094-2.30029L350.10889,336.22778,383.95312,24.86426a7.99979,7.99979,0,0,0-15.71386-2.80469L289.75415,336H269.76636L231.58984,221.47021l-.022.00727c-.05981-.17963-.104-.36218-.17725-.539A8,8,0,0,0,224,216H176a8.00071,8.00071,0,0,0-7.58984,5.47021l-24,72a7.97064,7.97064,0,0,0,8.47314,10.47608l.00049.00488L168,302.27161v47.43347l-.48584.77734L28.70508,249.53027a7.99968,7.99968,0,0,0-11.93457,9.89453l72,152a7.99826,7.99826,0,0,0,5.66015,4.41993l36.37281,7.27465,38.20337,68.76587.01171-.00634a7.98252,7.98252,0,0,0,11.41895,2.77734L216,470.948V488a7.99253,7.99253,0,0,0,10.52954,7.58716l.00073.0022.03-.01.01587-.00538,69.06836-23.0227,53.2041,22.80176a8.0006,8.0006,0,0,0,11.07129-6.22168L367.542,435.771l22.11524-22.11426a8.09069,8.09069,0,0,0,.55175-.61182l104-128A8.00023,8.00023,0,0,0,494.29688,275.06543ZM289.30444,457.79907l-53.573,17.85767L245.63623,440h48.11792ZM216,280.8396l-42.21631,4.69067L216,243.314ZM291.92578,352l6.32739,8.69971-35.2041,16.61364L270.08057,352Zm-41.84521,72,7.3125-26.32544,176.33105-83.21411L301.12354,424Zm83.064-79.76636-20.1626,9.51526L304.667,342.31567l50.752-203.00805ZM232,429.30957V273.29932l23.6377,70.91308ZM181.76562,232h22.9209l-34.38086,34.38037ZM44.65234,280.91211l114.36133,83.17114-26.86719,42.98743-30.63671-6.12732ZM168,379.89453v77.23279l-22.71582-40.88806Zm16,93.15723V300.4939l32-3.55567V451.71875Zm161.55664,3.48291-40.14331-17.2041L310.24609,440h40.52954Zm32.49512-73.8999L356.686,424H326.24512l104.7666-86.54639Z" data-original="#000000" class="active-path" data-old_color="#000000" fill="#FFFFFF"/></g></g> </svg>
