<?xml version="1.0"?>
<svg xmlns="http://www.w3.org/2000/svg" height="512px" viewBox="0 -15 402.7809 402" width="512px"><g><path d="m396.792969 119.910156-108.0625-13.507812-39.917969-19.960938c-.140625-.070312-.289062-.121094-.4375-.179687-.105469-.042969-.210938-.09375-.316406-.132813-.335938-.121094-.675782-.214844-1.015625-.28125-.085938-.015625-.171875-.019531-.257813-.035156-.285156-.039062-.566406-.066406-.851562-.074219-.058594-.003906-.113282-.015625-.175782-.015625-.011718 0-.03125 0-.050781 0-.066406 0-.125.015625-.191406.019532-.277344.007812-.554687.035156-.832031.082031-.089844.011719-.183594.019531-.273438.035156-.347656.070313-.6875.167969-1.019531.292969-.101563.039062-.195313.085937-.296875.128906-.238281.097656-.46875.210938-.695312.34375-.109376.058594-.210938.121094-.316407.1875-.078125.050781-.160156.089844-.234375.144531l-62.546875 43.78125-64.394531-96.589843c-.046875-.070313-.113281-.125-.164062-.195313-.195313-.269531-.414063-.523437-.648438-.761719-.113281-.117187-.21875-.238281-.339844-.347656-.34375-.304688-.714844-.582031-1.121094-.816406-.019531-.011719-.035156-.03125-.054687-.042969l-.019531-.007813c-.011719-.007812-.027344-.015624-.042969-.023437l-54.554687-30.683594c-1.023438-.574219-2.175782-.878906-3.347657-.878906h-47.785156c-2.320313 0-4.488281 1.179687-5.742187 3.132813-1.257813 1.953124-1.433594 4.414062-.472657 6.527343l88.746094 194.558594c1.316406 2.882813 4.421875 4.484375 7.554687 3.859375l26.679688-5.335938 6.140625 67.527344c.082031.851563.316406 1.671875.695313 2.4375l47.785156 95.574219c.035156.066406.085937.125.125.191406.148437.273438.320312.527344.507812.777344.101563.140625.191406.285156.304688.417969.246094.285156.519531.539062.808594.777344.078124.066406.140624.144531.21875.203124.375.289063.785156.53125 1.214843.738282.132813.0625.273438.097656.410157.152344.3125.125.625.238281.960937.316406.054687.011718.101563.039062.15625.050781.167969.035156.332031.03125.5.054687.175781.023438.339844.070313.523437.082032.128907.003906.253907.007812.375.007812h.003907.003906c.019531 0 .039063-.003906.054687-.003906.398438-.003906.796876-.042969 1.183594-.113281.164063-.03125.316406-.085938.476563-.128907.242187-.0625.480469-.125.714843-.210937.164063-.066406.316407-.144531.476563-.222656.214844-.101563.429687-.203125.632813-.328125.148437-.089844.285156-.191406.421874-.292969.136719-.097656.277344-.175781.40625-.28125l40.960938-34.132813c.078125-.066406.148438-.148437.222656-.21875.085938-.078124.167969-.15625.25-.238281.242188-.246093.46875-.503906.667969-.785156.03125-.039063.066406-.078125.097656-.121094.214844-.316406.402344-.652343.566407-1.003906.050781-.105469.089843-.214844.132812-.324219.054688-.132812.117188-.257812.164062-.394531l13.652344-40.960937c.820313-2.453126.179688-5.160157-1.648437-6.988282l-42.566407-42.566406 33.28125-28.441406c.601563-.511719 1.105469-1.121094 1.492188-1.804688l26.820312-46.929687 26.855469-25.785157 106.734375-6.671874c3.511719-.21875 6.285156-3.082032 6.398438-6.605469.101562-3.511719-2.492188-6.539063-5.984375-6.976563zm-116.898438 10.691406-18.425781 17.6875-6.902344-43.703124 25.328125 12.664062zm-30.632812 27.867188c.125.8125.414062 1.558594.792969 2.242188l-9.515626 16.652343 5.558594-38.90625zm-53.0625 116.417969 20.953125 54.484375-25.148438 20.957031zm-70.109375-86.175781-13.210938 2.644531 31.703125-23.777344zm-12.074219-131.28125 51.5625 77.339843-64.972656 48.722657zm56.132813 101.671874 8.726562 65.441407-39.269531-30.539063zm-117.324219-145.058593 49.140625 27.640625-13.601563 127.835937-70.917969-155.476562zm85.105469 195.957031 46.203124 35.933594-5.203124 93.640625-35.71875-71.429688zm86.890624 101.273438-15.753906-40.957032 22.054688 22.050782zm-31.222656-79.609376-11.496094-86.21875 54.671876-38.269531-14.257813 99.769531zm99.949219-105.421874v-5.480469l29.226563 3.65625zm0 0" data-original="#000000" class="active-path" data-old_color="#000000" fill="#FFFFFF"/></g> </svg>
