<svg xmlns="http://www.w3.org/2000/svg" width="512" height="512"><path d="M494.297 275.065a8.002 8.002 0 00-9.711-2.3l-134.477 63.463 33.844-311.364a8 8 0 00-15.714-2.804L289.754 336h-19.988L231.59 221.47l-.022.007c-.06-.18-.104-.362-.177-.539A8 8 0 00224 216h-48a8 8 0 00-7.59 5.47l-24 72a7.97 7.97 0 008.473 10.476v.005l15.117-1.68v47.434l-.486.777L28.705 249.53a8 8 0 00-11.934 9.895l72 152a7.998 7.998 0 005.66 4.42l36.372 7.274 38.204 68.766.012-.006a7.983 7.983 0 0011.418 2.777L216 470.948V488a7.993 7.993 0 0010.53 7.587v.002l.03-.01.016-.005 69.069-23.023 53.204 22.802a8 8 0 0011.07-6.222l7.623-53.36 22.115-22.114a8.09 8.09 0 00.552-.612l104-128a8 8 0 00.088-9.98zM289.304 457.8l-53.573 17.858L245.636 440h48.118zM216 280.84l-42.216 4.691L216 243.314zM291.926 352l6.327 8.7-35.204 16.613L270.081 352zm-41.845 72l7.312-26.325 176.331-83.215L301.124 424zm83.064-79.766l-20.163 9.515-8.315-11.433 50.752-203.008zM232 429.31V273.3l23.638 70.912zM181.766 232h22.92l-34.38 34.38zM44.652 280.912l114.362 83.171-26.868 42.988-30.636-6.128zM168 379.895v77.232l-22.716-40.888zm16 93.157V300.494l32-3.556v154.78zm161.557 3.483l-40.144-17.204L310.246 440h40.53zm32.495-73.9L356.686 424h-30.44l104.766-86.546z" data-original="#000000" class="active-path" data-old_color="#000000" fill="#FFF" data-name="Out line"/></svg>