<svg xmlns="http://www.w3.org/2000/svg" height="512" viewBox="0 -15 402.781 402" width="512"><path d="M396.793 119.91L288.73 106.402l-39.917-19.96c-.141-.07-.29-.122-.438-.18-.105-.043-.21-.094-.316-.133a6.898 6.898 0 00-1.016-.281c-.086-.016-.172-.02-.258-.035a7.83 7.83 0 00-.851-.075c-.059-.004-.114-.015-.176-.015h-.051c-.066 0-.125.015-.191.02a6 6 0 00-.832.081c-.09.012-.184.02-.274.035-.347.07-.687.168-1.02.293-.1.04-.195.086-.296.13a5.47 5.47 0 00-.696.343c-.109.059-.21.121-.316.188-.078.05-.16.09-.234.144L179.3 130.738l-64.395-96.59c-.047-.07-.113-.125-.164-.195a6.68 6.68 0 00-.648-.762c-.114-.117-.219-.238-.34-.347a6.865 6.865 0 00-1.121-.817c-.02-.011-.035-.03-.055-.043l-.02-.007c-.011-.008-.027-.016-.042-.024L57.96 1.27a6.844 6.844 0 00-3.348-.88H6.828a6.826 6.826 0 00-5.742 3.133 6.835 6.835 0 00-.473 6.528L89.36 204.609a6.814 6.814 0 007.555 3.86l26.68-5.336 6.14 67.527c.082.852.317 1.672.696 2.438l47.785 95.574c.035.066.086.125.125.191.148.274.32.528.508.778.101.14.191.285.304.418.246.285.52.539.809.777.078.066.14.144.219.203.375.29.785.531 1.215.738.132.063.273.098.41.153.312.125.625.238.96.316.055.012.102.04.157.05.168.036.332.032.5.056.176.023.34.07.523.082.13.004.254.007.375.007h.008c.02 0 .04-.003.055-.003a7.023 7.023 0 001.183-.114c.164-.031.317-.086.477-.129.242-.062.48-.125.715-.21.164-.067.316-.145.476-.223.215-.102.43-.203.633-.328.149-.09.285-.192.422-.293.137-.098.277-.176.406-.282l40.961-34.132c.078-.067.149-.149.223-.22a6.392 6.392 0 00.918-1.023c.031-.039.066-.078.098-.12.214-.317.402-.653.566-1.005.05-.105.09-.214.133-.324.054-.133.117-.258.164-.394l13.652-40.961c.82-2.453.18-5.16-1.648-6.989l-42.567-42.566 33.282-28.441a6.696 6.696 0 001.492-1.805l26.82-46.93 26.856-25.785 106.734-6.672a6.836 6.836 0 006.398-6.605 6.842 6.842 0 00-5.984-6.977zm-116.898 10.692l-18.426 17.687-6.903-43.703 25.329 12.664zm-30.633 27.867a6.73 6.73 0 00.793 2.242l-9.516 16.652 5.559-38.906zm-53.063 116.418l20.953 54.484-25.148 20.957zm-70.11-86.176l-13.21 2.644 31.703-23.777zM114.017 57.43l51.562 77.34-64.973 48.722zm56.132 101.672l8.727 65.441-39.27-30.54zM52.824 14.043l49.14 27.64-13.6 127.837L17.444 14.043zM137.93 210l46.203 35.934-5.203 93.64-35.72-71.43zm86.89 101.273l-15.754-40.957 22.055 22.051zm-31.222-79.609l-11.496-86.219 54.671-38.27-14.257 99.77zm99.949-105.422v-5.48l29.226 3.656zm0 0" data-original="#000000" class="active-path" data-old_color="#000000" fill="#FFF"/></svg>