<svg height="512" viewBox="0 0 64 64" width="512" xmlns="http://www.w3.org/2000/svg" xmlns:xlink="http://www.w3.org/1999/xlink"><linearGradient id="New_Gradient_Swatch_1" gradientUnits="userSpaceOnUse" x1="16" x2="16" y1="-.025" y2="64.699"><stop offset="0" stop-color="#fff33b"/><stop offset=".014" stop-color="#fee72e"/><stop offset=".042" stop-color="#fed51b"/><stop offset=".07" stop-color="#fdca10"/><stop offset=".1" stop-color="#fdc70c"/><stop offset=".4" stop-color="#f3903f"/><stop offset=".8" stop-color="#ed683c"/><stop offset="1" stop-color="#e93e3a"/></linearGradient><linearGradient id="New_Gradient_Swatch_1-2" x1="48" x2="48" xlink:href="#New_Gradient_Swatch_1" y1="-.025" y2="64.699"/><path d="m27 10h-1v-1a3 3 0 0 0 -3-3h-10a1 1 0 0 1 -1-1 3 3 0 0 0 -3-3h-4a3 3 0 0 0 -3 3v22a3 3 0 0 0 3 3h22a3 3 0 0 0 3-3v-14a3 3 0 0 0 -3-3zm-23 17v-22a1 1 0 0 1 1-1h4a1 1 0 0 1 1 1 3 3 0 0 0 3 3h10a1 1 0 0 1 1 1v1h-15a3 3 0 0 0 -3 3v14a2.966 2.966 0 0 0 .184 1h-1.184a1 1 0 0 1 -1-1zm24 0a1 1 0 0 1 -1 1h-18a1 1 0 0 1 -1-1v-14a1 1 0 0 1 1-1h18a1 1 0 0 1 1 1z" fill="url(#New_Gradient_Swatch_1)"/><path d="m59 10h-1v-1a3 3 0 0 0 -3-3h-10a1 1 0 0 1 -1-1 3 3 0 0 0 -3-3h-4a3 3 0 0 0 -3 3v22a3 3 0 0 0 3 3h22a3 3 0 0 0 3-3v-14a3 3 0 0 0 -3-3zm-23 17v-22a1 1 0 0 1 1-1h4a1 1 0 0 1 1 1 3 3 0 0 0 3 3h10a1 1 0 0 1 1 1v1h-15a3 3 0 0 0 -3 3v14a2.966 2.966 0 0 0 .184 1h-1.184a1 1 0 0 1 -1-1zm24 0a1 1 0 0 1 -1 1h-18a1 1 0 0 1 -1-1v-14a1 1 0 0 1 1-1h18a1 1 0 0 1 1 1z" fill="url(#New_Gradient_Swatch_1-2)"/><path d="m27 42h-1v-1a3 3 0 0 0 -3-3h-10a1 1 0 0 1 -1-1 3 3 0 0 0 -3-3h-4a3 3 0 0 0 -3 3v22a3 3 0 0 0 3 3h22a3 3 0 0 0 3-3v-14a3 3 0 0 0 -3-3zm-23 17v-22a1 1 0 0 1 1-1h4a1 1 0 0 1 1 1 3 3 0 0 0 3 3h10a1 1 0 0 1 1 1v1h-15a3 3 0 0 0 -3 3v14a2.966 2.966 0 0 0 .184 1h-1.184a1 1 0 0 1 -1-1zm24 0a1 1 0 0 1 -1 1h-18a1 1 0 0 1 -1-1v-14a1 1 0 0 1 1-1h18a1 1 0 0 1 1 1z" fill="url(#New_Gradient_Swatch_1)"/><path d="m59 42h-1v-1a3 3 0 0 0 -3-3h-10a1 1 0 0 1 -1-1 3 3 0 0 0 -3-3h-4a3 3 0 0 0 -3 3v22a3 3 0 0 0 3 3h22a3 3 0 0 0 3-3v-14a3 3 0 0 0 -3-3zm-23 17v-22a1 1 0 0 1 1-1h4a1 1 0 0 1 1 1 3 3 0 0 0 3 3h10a1 1 0 0 1 1 1v1h-15a3 3 0 0 0 -3 3v14a2.966 2.966 0 0 0 .184 1h-1.184a1 1 0 0 1 -1-1zm24 0a1 1 0 0 1 -1 1h-18a1 1 0 0 1 -1-1v-14a1 1 0 0 1 1-1h18a1 1 0 0 1 1 1z" fill="url(#New_Gradient_Swatch_1-2)"/></svg>