<svg width="512pt" height="512pt" viewBox="0 0 512 512" xmlns="http://www.w3.org/2000/svg" xmlns:xlink="http://www.w3.org/1999/xlink"><linearGradient id="b" x1="169.99" x2="299.49" y1="71.986" y2="349.05" gradientUnits="userSpaceOnUse"><stop stop-color="#0077b5" offset="0"/><stop stop-color="#0066b2" offset="1"/></linearGradient><linearGradient id="a"><stop stop-color="#0066b2" stop-opacity="0" offset="0"/><stop stop-color="#07485e" offset="1"/></linearGradient><linearGradient id="c" x1="364.28" x2="-379.59" y1="314.09" y2="-84.952" gradientUnits="userSpaceOnUse" xlink:href="#a"/><linearGradient id="d" x1="256" x2="256" y1="415.83" y2="522.83" gradientUnits="userSpaceOnUse" xlink:href="#a"/><linearGradient id="e" x1="271.35" x2="79.917" y1="273.78" y2="82.338" gradientUnits="userSpaceOnUse" xlink:href="#a"/><linearGradient id="f" x1="383.75" x2="-1.757" y1="451.63" y2="270.92" gradientUnits="userSpaceOnUse" xlink:href="#a"/><linearGradient id="g" x1="477.53" x2="208.97" y1="491.25" y2="222.69" gradientUnits="userSpaceOnUse" xlink:href="#a"/><path d="M420.42 503.23c-109.5 11.688-219.34 11.688-328.84 0-43.664-4.66-78.152-39.148-82.812-82.816-11.688-109.5-11.688-219.34 0-328.84C13.428 47.91 47.916 13.422 91.58 8.762c109.5-11.688 219.34-11.688 328.84 0 43.668 4.66 78.156 39.148 82.816 82.812 11.688 109.5 11.688 219.34 0 328.84-4.66 43.668-39.145 78.156-82.812 82.816z" fill="url(#b)"/><path d="M475.39 110.1c-4.133-38.746-34.734-69.352-73.484-73.488-97.172-10.367-194.63-10.367-291.8 0C71.36 40.749 40.754 71.354 36.618 110.1c-10.367 97.172-10.367 194.63 0 291.8 4.137 38.75 34.742 69.355 73.488 73.488 97.172 10.371 194.63 10.371 291.8 0 38.75-4.133 69.355-34.738 73.488-73.488 10.371-97.168 10.371-194.63 0-291.8z" fill="url(#c)"/><path d="M7.672 409.8c.351 3.54.715 7.078 1.094 10.617 4.66 43.664 39.148 78.152 82.816 82.812 109.5 11.688 219.34 11.688 328.84 0 43.668-4.66 78.152-39.148 82.812-82.812.379-3.54.742-7.078 1.097-10.617z" fill="url(#d)"/><path d="M497.71 443.57L167.3 113.16c-7.379-9.629-18.988-15.844-32.055-15.844-22.289 0-40.359 18.066-40.359 40.355 0 13.07 6.219 24.68 15.848 32.055l329.26 329.26c26.613-8.855 47.824-29.305 57.715-55.418z" fill="url(#e)"/><path d="M169.15 204.5h-67.801v210.18l96.203 96.203c74.305 2.813 148.66.27 222.86-7.652a92.969 92.969 0 0035.938-11.527z" fill="url(#f)"/><path d="M399.41 222.11c-12.402-13.598-30.258-22.129-50.105-22.129-31.395 0-51.656 11.027-63.715 21.266l-13.285-16.742h-62.473v210.18l96.492 96.492a1550.692 1550.692 0 00114.1-7.941c43.668-4.66 78.152-39.148 82.812-82.812a1550.743 1550.743 0 006.848-87.641z" fill="url(#g)"/><g fill="#fff"><path d="M101.36 204.5h67.797v210.18H101.36zM349.3 199.98c-49.684 0-71.508 27.613-77 36.02v-31.496h-62.473v210.18h67.801v-105.57c0-30.508 14.043-54.238 40.68-54.238 26.633 0 30.992 29.539 30.992 65.863v93.949h67.801v-146.9c0-37.445-30.355-67.801-67.801-67.801zM175.61 137.68c0 22.289-18.066 40.355-40.355 40.355-22.289 0-40.359-18.066-40.359-40.355 0-22.289 18.07-40.359 40.359-40.359s40.355 18.07 40.355 40.359z"/></g></svg>