<svg height="512" viewBox="0 0 128 128" width="512" xmlns="http://www.w3.org/2000/svg"><g><path d="m100.475 25.5-48.717 36.059v13.379l33.97-26.432z" fill="#d993f6"/><path d="m72.042 77.497-37.934-29.807 66.367-22.19z" fill="#f2f2fc"/><g fill="#d8d9fb"><path d="m51.758 61.559 48.717-36.059-28.433 51.997z"/><path d="m27.526 104.25a1.752 1.752 0 0 1 -1.7-2.167c.376-1.535.794-3.02 1.24-4.414a1.75 1.75 0 1 1 3.334 1.066c-.421 1.318-.816 2.725-1.174 4.182a1.75 1.75 0 0 1 -1.7 1.333z"/><path d="m31.39 93.339a1.751 1.751 0 0 1 -1.561-2.539 25.09 25.09 0 0 1 6.325-8.327c.054-5.861 3.792-10.68 3.993-10.934a1.75 1.75 0 0 1 2.753 2.161 17.877 17.877 0 0 0 -2.979 6.538 10.146 10.146 0 0 1 6.712-.348c3.429 1.057 5.539 3.963 5.131 7.067a6.682 6.682 0 0 1 -5.887 6.081 8.582 8.582 0 0 1 -8.812-5.659q-.139-.353-.257-.7a24.24 24.24 0 0 0 -3.85 5.7 1.751 1.751 0 0 1 -1.568.96zm8.4-9.11a8.888 8.888 0 0 0 .518 1.853 5.081 5.081 0 0 0 5.126 3.487 3.235 3.235 0 0 0 2.856-3.069c.181-1.378-.926-2.721-2.692-3.266a7.249 7.249 0 0 0 -5.805.995z"/></g></g></svg>