<?xml version="1.0" encoding="iso-8859-1"?>
<!-- Generator: Adobe Illustrator 21.0.0, SVG Export Plug-In . SVG Version: 6.00 Build 0)  -->
<svg version="1.1" id="Capa_1" xmlns="http://www.w3.org/2000/svg" xmlns:xlink="http://www.w3.org/1999/xlink" x="0px" y="0px"
	 viewBox="0 0 1449.61 1449.61" style="enable-background:new 0 0 1449.61 1449.61;" xml:space="preserve">
<g>
	<g id="Human_Mind-35">
		
			<linearGradient id="SVGID_1_" gradientUnits="userSpaceOnUse" x1="773.1169" y1="1500.0707" x2="773.1169" y2="-78.6543" gradientTransform="matrix(1 0 0 -1 0 1452)">
			<stop  offset="0" style="stop-color:#FFF33B"/>
			<stop  offset="0.014" style="stop-color:#FEE72E"/>
			<stop  offset="0.042" style="stop-color:#FED51B"/>
			<stop  offset="0.07" style="stop-color:#FDCA10"/>
			<stop  offset="0.1" style="stop-color:#FDC70C"/>
			<stop  offset="0.4" style="stop-color:#F3903F"/>
			<stop  offset="0.8" style="stop-color:#ED683C"/>
			<stop  offset="1" style="stop-color:#E93E3A"/>
		</linearGradient>
		<path style="fill:url(#SVGID_1_);" d="M773.117,314.271c-66.705,0-120.781,54.075-120.781,120.781s54.075,120.781,120.781,120.781
			c66.705,0,120.781-54.075,120.781-120.781C893.818,368.38,839.789,314.351,773.117,314.271z M773.117,507.521
			c-40.023,0-72.468-32.445-72.468-72.468s32.445-72.468,72.468-72.468c40.023,0,72.468,32.445,72.468,72.468
			S813.14,507.521,773.117,507.521z"/>
		
			<linearGradient id="SVGID_2_" gradientUnits="userSpaceOnUse" x1="724.8052" y1="1500.0707" x2="724.8052" y2="-78.6543" gradientTransform="matrix(1 0 0 -1 0 1452)">
			<stop  offset="0" style="stop-color:#FFF33B"/>
			<stop  offset="0.014" style="stop-color:#FEE72E"/>
			<stop  offset="0.042" style="stop-color:#FED51B"/>
			<stop  offset="0.07" style="stop-color:#FDCA10"/>
			<stop  offset="0.1" style="stop-color:#FDC70C"/>
			<stop  offset="0.4" style="stop-color:#F3903F"/>
			<stop  offset="0.8" style="stop-color:#ED683C"/>
			<stop  offset="1" style="stop-color:#E93E3A"/>
		</linearGradient>
		<path style="fill:url(#SVGID_2_);" d="M1377.021,169.335h-42.418l30.026-30.026c9.43-9.433,9.43-24.724,0-34.157l-68.362-68.362
			c-9.433-9.43-24.724-9.43-34.157,0l-30.026,30.026V24.398c0-13.341-10.815-24.156-24.156-24.156h-96.625
			c-13.341,0-24.156,10.815-24.156,24.156v42.418l-30.026-30.026c-9.433-9.43-24.724-9.43-34.157,0l-38.457,38.457
			C903.859,33.327,815.471,8.392,724.805,1.981L701.156,0l-20.943,0.531C607.888,3.18,537.004,21.52,472.47,54.279
			c-171.589,85.784-279.734,261.405-279.1,453.242v89.933L51.887,833.266c-6.871,11.436-3.17,26.276,8.266,33.147
			c3.756,2.256,8.054,3.449,12.436,3.45H223.83l-14.663,217.719c-11.22,64.427,31.23,125.97,95.441,138.366
			c1.592,0.305,3.21,0.458,4.831,0.459c0.872,0,1.743-0.048,2.609-0.145l147.038-15.943v215.135
			c0,13.341,10.815,24.156,24.156,24.156h579.747c13.341,0,24.156-10.815,24.156-24.156v-240.016l188.708-466.455
			c31.071-86.373,36.664-179.856,16.112-269.317c1.538-0.782,2.981-1.739,4.3-2.85l68.362-68.362c9.43-9.433,9.43-24.724,0-34.157
			l-30.026-30.026h42.418c13.341,0,24.156-10.815,24.156-24.156v-96.625C1401.177,180.15,1390.362,169.335,1377.021,169.335z
			 M1230.707,701.857l-190.109,469.958c-1.318,3.437-1.823,7.133-1.474,10.798c0,0.483-0.29,0.894-0.29,1.401v217.405H507.399
			v-217.526c0-0.507-0.266-0.942-0.29-1.449c-0.024-0.507,0.217-1.063,0.145-1.643c-0.307-1.456-0.752-2.88-1.329-4.251
			c-0.239-0.917-0.529-1.821-0.87-2.705c-1.032-2.322-2.435-4.459-4.155-6.329c-0.217-0.241-0.29-0.556-0.507-0.773
			c-0.217-0.218-0.266-0.169-0.387-0.29c-1.526-1.478-3.25-2.738-5.121-3.744l-0.459-0.242c-4.167-2.431-8.988-3.503-13.793-3.068
			l-169.987,18.407c-37.508-9.438-61.049-46.603-53.554-84.547l16.668-245.934c0.926-13.307-9.11-24.846-22.417-25.775
			c-2.005-0.169-136.023,0-136.023,0L238.3,616.586c0.217-0.512,0.403-1.036,0.556-1.57c0.7-1.443,1.243-2.958,1.618-4.517
			c0.481-1.575,0.804-3.193,0.966-4.831c0-0.556,0.314-1.039,0.314-1.618v-95.827c-0.596-173.908,97.395-333.136,252.915-410.969
			C553.173,67.566,617.43,50.95,682.99,48.554h19.156c86.661,3.343,171.652,24.864,249.461,63.168
			c-4.539,9.185-2.743,20.238,4.469,27.514l30.074,30.099h-43.94c-6.756,0.037-13.181,2.934-17.682,7.972
			c-9.452-7.686-23.175-7.019-31.838,1.546l-22.948,22.924v-32.442c0-13.341-10.815-24.156-24.156-24.156H700.649
			c-13.341,0-24.156,10.815-24.156,24.156v32.442l-22.948-22.924c-9.433-9.43-24.724-9.43-34.157,0l-102.47,102.47
			c-9.43,9.433-9.43,24.724,0,34.157l22.924,22.948h-32.442c-13.341,0-24.156,10.815-24.156,24.156l0,0v144.937
			c0,13.341,10.815,24.156,24.156,24.156h32.442l-22.924,22.948c-9.43,9.433-9.43,24.724,0,34.157l102.47,102.47
			c9.433,9.43,24.724,9.43,34.157,0l22.948-22.924v32.442c0,13.341,10.815,24.156,24.156,24.156h144.937
			c13.341,0,24.156-10.815,24.156-24.156v-32.442l22.948,22.924c9.433,9.43,24.724,9.43,34.157,0l102.47-102.47
			c9.43-9.433,9.43-24.724,0-34.157l-22.924-22.948h32.442c13.341,0,24.156-10.815,24.156-24.156v-66.574l24.156-24.156v42.418
			c0,13.341,10.815,24.156,24.156,24.156h96.625c13.341,0,24.156-10.815,24.156-24.156V416.79l0,0
			C1264.518,509.127,1264.032,609.838,1230.707,701.857z M928.9,369.251c0.121,0.338,0.749,2.077,0.894,2.416
			c3.691,9.125,12.55,15.097,22.393,15.098h62.492v96.625h-62.492c-9.843,0-18.702,5.973-22.393,15.098l-0.99,2.657
			c-3.862,9.086-1.805,19.608,5.194,26.572l44.085,44.109l-68.314,68.314l-44.109-44.206c-7.3-6.483-17.568-8.44-26.741-5.097
			c-0.338,0-2.077,0.749-2.416,0.894c-9.125,3.691-15.097,12.55-15.098,22.393v62.492h-96.601v-62.492
			c0-9.843-5.973-18.702-15.098-22.393l-2.657-0.99c-9.086-3.862-19.608-1.805-26.572,5.194l-44.109,44.085l-68.314-68.314
			l44.085-44.109c6.483-7.3,8.44-17.568,5.097-26.741c0-0.338-0.749-2.077-0.894-2.416c-3.685-9.083-12.494-15.038-22.296-15.073
			h-62.492V386.74h62.492c9.843,0,18.702-5.973,22.393-15.098l0.99-2.657c3.862-9.086,1.805-19.608-5.194-26.572l-44.085-44.109
			l68.314-68.314l44.109,44.085c7.3,6.483,17.568,8.44,26.741,5.097c0.338-0.121,2.077-0.749,2.416-0.894
			c9.083-3.685,15.038-12.494,15.073-22.296v-62.492h96.625v62.492c0,9.843,5.973,18.702,15.098,22.393l2.657,0.99
			c9.086,3.862,19.608,1.805,26.572-5.194l44.109-44.085l68.314,68.314l-44.182,44.109
			C927.514,349.81,925.557,360.078,928.9,369.251z M1352.865,265.959h-56.767c-9.755,0.003-18.55,5.873-22.296,14.88l-5.822,14.059
			c-3.729,9.022-1.661,19.402,5.242,26.306l40.172,40.172l-34.205,34.205l-40.172-40.244c-6.904-6.902-17.284-8.971-26.306-5.242
			l-14.059,5.822c-9.031,3.756-14.906,12.587-14.88,22.369v56.767h-48.312v-56.767c-0.003-9.755-5.873-18.55-14.88-22.296
			l-14.059-5.822c-9.022-3.729-19.402-1.661-26.306,5.242l-17.223,17.223v-10.049c0-13.341-10.815-24.156-24.156-24.156h-32.442
			l22.924-22.948c9.43-9.433,9.43-24.724,0-34.157l-62.951-63.072c0-0.217,0.121-0.387,0.121-0.604h56.767
			c9.775-0.002,18.586-5.895,22.32-14.928l5.798-13.986c3.74-9.029,1.671-19.422-5.242-26.33l-40.292-40.172l0.29-0.29l0,0
			l33.819-33.819l40.268,40.148c6.908,6.913,17.301,8.982,26.33,5.242l13.986-5.797c9.058-3.744,14.956-12.591,14.928-22.393V48.554
			h48.312v56.767c0.003,9.755,5.873,18.55,14.88,22.296l14.059,5.822c9.008,3.747,19.386,1.708,26.306-5.169l40.172-40.244
			l34.205,34.205l-40.244,40.172c-6.857,6.911-8.895,17.263-5.169,26.258l5.822,14.059c3.731,9.026,12.53,14.917,22.296,14.928
			h56.767V265.959z"/>
		
			<linearGradient id="SVGID_3_" gradientUnits="userSpaceOnUse" x1="1159.6154" y1="1500.0707" x2="1159.6154" y2="-78.6543" gradientTransform="matrix(1 0 0 -1 0 1452)">
			<stop  offset="0" style="stop-color:#FFF33B"/>
			<stop  offset="0.014" style="stop-color:#FEE72E"/>
			<stop  offset="0.042" style="stop-color:#FED51B"/>
			<stop  offset="0.07" style="stop-color:#FDCA10"/>
			<stop  offset="0.1" style="stop-color:#FDC70C"/>
			<stop  offset="0.4" style="stop-color:#F3903F"/>
			<stop  offset="0.8" style="stop-color:#ED683C"/>
			<stop  offset="1" style="stop-color:#E93E3A"/>
		</linearGradient>
		<path style="fill:url(#SVGID_3_);" d="M1159.615,145.178c-53.364,0-96.625,43.26-96.625,96.625s43.26,96.625,96.625,96.625
			c53.364,0,96.625-43.26,96.625-96.625S1212.98,145.178,1159.615,145.178z M1159.615,290.115c-26.682,0-48.312-21.63-48.312-48.312
			s21.63-48.312,48.312-48.312s48.312,21.63,48.312,48.312S1186.297,290.115,1159.615,290.115z"/>
	</g>
</g>
<g>
</g>
<g>
</g>
<g>
</g>
<g>
</g>
<g>
</g>
<g>
</g>
<g>
</g>
<g>
</g>
<g>
</g>
<g>
</g>
<g>
</g>
<g>
</g>
<g>
</g>
<g>
</g>
<g>
</g>
</svg>
