<svg height="480pt" viewBox="0 0 480 480" width="480pt" xmlns="http://www.w3.org/2000/svg" xmlns:xlink="http://www.w3.org/1999/xlink"><linearGradient id="a"><stop offset="0" stop-color="#fff33b"/><stop offset=".014" stop-color="#fee72e"/><stop offset=".042" stop-color="#fed51b"/><stop offset=".07" stop-color="#fdca10"/><stop offset=".1" stop-color="#fdc70c"/><stop offset=".4" stop-color="#f3903f"/><stop offset=".8" stop-color="#ed683c"/><stop offset="1" stop-color="#e93e3a"/></linearGradient><linearGradient id="b" gradientUnits="userSpaceOnUse" x1="240" x2="240" xlink:href="#a" y1="-13.336" y2="509.336"/><linearGradient id="c" gradientUnits="userSpaceOnUse" x1="64" x2="64" xlink:href="#a" y1="-13.336" y2="509.336"/><linearGradient id="d" gradientUnits="userSpaceOnUse" x1="96" x2="96" xlink:href="#a" y1="-13.336" y2="509.336"/><linearGradient id="e" gradientUnits="userSpaceOnUse" x1="128" x2="128" xlink:href="#a" y1="-13.336" y2="509.336"/><linearGradient id="f" gradientUnits="userSpaceOnUse" x1="424" x2="424" xlink:href="#a" y1="-13.336" y2="509.336"/><linearGradient id="g" gradientUnits="userSpaceOnUse" x1="48" x2="48" xlink:href="#a" y1="-13.336" y2="509.336"/><linearGradient id="h" gradientUnits="userSpaceOnUse" x1="88" x2="88" xlink:href="#a" y1="-13.336" y2="509.336"/><linearGradient id="i" gradientUnits="userSpaceOnUse" x1="120" x2="120" xlink:href="#a" y1="-13.336" y2="509.336"/><linearGradient id="j" gradientUnits="userSpaceOnUse" x1="152" x2="152" xlink:href="#a" y1="-13.336" y2="509.336"/><linearGradient id="k" gradientUnits="userSpaceOnUse" x1="112" x2="112" xlink:href="#a" y1="-13.336" y2="509.336"/><linearGradient id="l" gradientUnits="userSpaceOnUse" x1="320" x2="320" xlink:href="#a" y1="-13.336" y2="509.336"/><path d="m472 0h-464c-4.417969 0-8 3.582031-8 8v464c0 4.417969 3.582031 8 8 8h464c4.417969 0 8-3.582031 8-8v-464c0-4.417969-3.582031-8-8-8zm-8 16v80h-448v-80zm0 96v304h-448v-304zm-448 352v-32h448v32zm0 0" fill="url(#b)"/><path d="m56 48h16v16h-16zm0 0" fill="url(#c)"/><path d="m88 48h16v16h-16zm0 0" fill="url(#d)"/><path d="m120 48h16v16h-16zm0 0" fill="url(#e)"/><path d="m416 48h16v16h-16zm0 0" fill="url(#f)"/><path d="m32 88h416c4.417969 0 8-3.582031 8-8v-48c0-4.417969-3.582031-8-8-8h-416c-4.417969 0-8 3.582031-8 8v48c0 4.417969 3.582031 8 8 8zm408-16h-272v-32h272zm-400-32h112v32h-112zm0 0" fill="url(#b)"/><path d="m32 440h32v16h-32zm0 0" fill="url(#g)"/><path d="m80 440h16v16h-16zm0 0" fill="url(#h)"/><path d="m112 440h16v16h-16zm0 0" fill="url(#i)"/><path d="m144 440h16v16h-16zm0 0" fill="url(#j)"/><path d="m56 384h112c4.417969 0 8-3.582031 8-8v-224c0-4.417969-3.582031-8-8-8h-112c-4.417969 0-8 3.582031-8 8v224c0 4.417969 3.582031 8 8 8zm8-224h96v208h-96zm0 0" fill="url(#k)"/><g fill="url(#l)"><path d="m216 192h208c4.417969 0 8-3.582031 8-8v-32c0-4.417969-3.582031-8-8-8h-208c-4.417969 0-8 3.582031-8 8v32c0 4.417969 3.582031 8 8 8zm8-32h192v16h-192zm0 0"/><path d="m216 384h208c4.417969 0 8-3.582031 8-8v-32c0-4.417969-3.582031-8-8-8h-208c-4.417969 0-8 3.582031-8 8v32c0 4.417969 3.582031 8 8 8zm8-32h192v16h-192zm0 0"/><path d="m216 320h208c4.417969 0 8-3.582031 8-8v-32c0-4.417969-3.582031-8-8-8h-208c-4.417969 0-8 3.582031-8 8v32c0 4.417969 3.582031 8 8 8zm8-32h192v16h-192zm0 0"/><path d="m216 256h208c4.417969 0 8-3.582031 8-8v-32c0-4.417969-3.582031-8-8-8h-208c-4.417969 0-8 3.582031-8 8v32c0 4.417969 3.582031 8 8 8zm8-32h192v16h-192zm0 0"/></g></svg>